<mxfile host="app.diagrams.net" agent="Mozilla/5.0 (Windows NT 10.0; Win64; x64) AppleWebKit/537.36 (KHTML, like Gecko) Chrome/132.0.0.0 Safari/537.36" version="26.0.10">
  <diagram name="Page-1" id="8HcPHFSHv5k7bG06iYn8">
    <mxGraphModel dx="880" dy="426" grid="1" gridSize="10" guides="1" tooltips="1" connect="1" arrows="1" fold="1" page="1" pageScale="1" pageWidth="827" pageHeight="1169" math="0" shadow="0">
      <root>
        <mxCell id="0" />
        <mxCell id="1" parent="0" />
        <mxCell id="RAs5APH7nJDmWUxE77lN-11" value="" style="edgeStyle=orthogonalEdgeStyle;rounded=0;orthogonalLoop=1;jettySize=auto;html=1;" edge="1" parent="1" source="RAs5APH7nJDmWUxE77lN-1" target="RAs5APH7nJDmWUxE77lN-3">
          <mxGeometry relative="1" as="geometry" />
        </mxCell>
        <mxCell id="RAs5APH7nJDmWUxE77lN-1" value="Agent" style="shape=umlActor;verticalLabelPosition=bottom;verticalAlign=top;html=1;outlineConnect=0;fillColor=#1ba1e2;strokeColor=#006EAF;fontColor=#ffffff;" vertex="1" parent="1">
          <mxGeometry x="50" y="210" width="30" height="70" as="geometry" />
        </mxCell>
        <mxCell id="RAs5APH7nJDmWUxE77lN-2" value="Network traffic&lt;div&gt;(environment)&lt;/div&gt;" style="image;aspect=fixed;html=1;points=[];align=center;fontSize=12;image=img/lib/azure2/networking/Traffic_Manager_Profiles.svg;" vertex="1" parent="1">
          <mxGeometry x="680" y="200" width="68" height="68" as="geometry" />
        </mxCell>
        <mxCell id="RAs5APH7nJDmWUxE77lN-12" value="" style="edgeStyle=orthogonalEdgeStyle;rounded=0;orthogonalLoop=1;jettySize=auto;html=1;" edge="1" parent="1" source="RAs5APH7nJDmWUxE77lN-3" target="RAs5APH7nJDmWUxE77lN-6">
          <mxGeometry relative="1" as="geometry" />
        </mxCell>
        <mxCell id="RAs5APH7nJDmWUxE77lN-3" value="states(feature records)" style="ellipse;whiteSpace=wrap;html=1;fillColor=#b1ddf0;strokeColor=#10739e;" vertex="1" parent="1">
          <mxGeometry x="140" y="215" width="110" height="60" as="geometry" />
        </mxCell>
        <mxCell id="RAs5APH7nJDmWUxE77lN-5" value="" style="rounded=0;whiteSpace=wrap;html=1;fillColor=none;" vertex="1" parent="1">
          <mxGeometry x="280" y="120" width="360" height="240" as="geometry" />
        </mxCell>
        <mxCell id="RAs5APH7nJDmWUxE77lN-13" value="" style="edgeStyle=orthogonalEdgeStyle;rounded=0;orthogonalLoop=1;jettySize=auto;html=1;" edge="1" parent="1" source="RAs5APH7nJDmWUxE77lN-6" target="RAs5APH7nJDmWUxE77lN-8">
          <mxGeometry relative="1" as="geometry" />
        </mxCell>
        <mxCell id="RAs5APH7nJDmWUxE77lN-6" value="input layer" style="rounded=0;whiteSpace=wrap;html=1;fillColor=#b1ddf0;strokeColor=#10739e;" vertex="1" parent="1">
          <mxGeometry x="320" y="160" width="40" height="160" as="geometry" />
        </mxCell>
        <mxCell id="RAs5APH7nJDmWUxE77lN-15" value="" style="edgeStyle=orthogonalEdgeStyle;rounded=0;orthogonalLoop=1;jettySize=auto;html=1;" edge="1" parent="1" source="RAs5APH7nJDmWUxE77lN-7" target="RAs5APH7nJDmWUxE77lN-10">
          <mxGeometry relative="1" as="geometry" />
        </mxCell>
        <mxCell id="RAs5APH7nJDmWUxE77lN-7" value="hidden layer" style="rounded=0;whiteSpace=wrap;html=1;fillColor=#b1ddf0;strokeColor=#10739e;" vertex="1" parent="1">
          <mxGeometry x="480" y="140" width="40" height="200" as="geometry" />
        </mxCell>
        <mxCell id="RAs5APH7nJDmWUxE77lN-14" value="" style="edgeStyle=orthogonalEdgeStyle;rounded=0;orthogonalLoop=1;jettySize=auto;html=1;" edge="1" parent="1" source="RAs5APH7nJDmWUxE77lN-8" target="RAs5APH7nJDmWUxE77lN-7">
          <mxGeometry relative="1" as="geometry" />
        </mxCell>
        <mxCell id="RAs5APH7nJDmWUxE77lN-8" value="hidden layer" style="rounded=0;whiteSpace=wrap;html=1;fillColor=#b1ddf0;strokeColor=#10739e;" vertex="1" parent="1">
          <mxGeometry x="400" y="180" width="40" height="120" as="geometry" />
        </mxCell>
        <mxCell id="RAs5APH7nJDmWUxE77lN-16" value="" style="edgeStyle=orthogonalEdgeStyle;rounded=0;orthogonalLoop=1;jettySize=auto;html=1;" edge="1" parent="1" source="RAs5APH7nJDmWUxE77lN-10" target="RAs5APH7nJDmWUxE77lN-2">
          <mxGeometry relative="1" as="geometry" />
        </mxCell>
        <mxCell id="RAs5APH7nJDmWUxE77lN-10" value="actions" style="rounded=0;whiteSpace=wrap;html=1;fillColor=#b1ddf0;strokeColor=#10739e;" vertex="1" parent="1">
          <mxGeometry x="560" y="200" width="40" height="80" as="geometry" />
        </mxCell>
        <mxCell id="RAs5APH7nJDmWUxE77lN-17" value="reward" style="shape=image;html=1;verticalAlign=top;verticalLabelPosition=bottom;labelBackgroundColor=#ffffff;imageAspect=0;aspect=fixed;image=https://cdn0.iconfinder.com/data/icons/analytic-investment-and-balanced-scorecard/512/178_award_top_position_reward-128.png" vertex="1" parent="1">
          <mxGeometry x="532" y="20" width="68" height="68" as="geometry" />
        </mxCell>
        <mxCell id="RAs5APH7nJDmWUxE77lN-18" value="" style="endArrow=classic;html=1;rounded=0;entryX=0.75;entryY=0;entryDx=0;entryDy=0;" edge="1" parent="1" target="RAs5APH7nJDmWUxE77lN-8">
          <mxGeometry width="50" height="50" relative="1" as="geometry">
            <mxPoint x="430" y="79" as="sourcePoint" />
            <mxPoint x="430" y="60" as="targetPoint" />
          </mxGeometry>
        </mxCell>
        <mxCell id="RAs5APH7nJDmWUxE77lN-19" value="" style="endArrow=classic;html=1;rounded=0;" edge="1" parent="1" target="RAs5APH7nJDmWUxE77lN-7">
          <mxGeometry width="50" height="50" relative="1" as="geometry">
            <mxPoint x="500" y="80" as="sourcePoint" />
            <mxPoint x="525" y="29" as="targetPoint" />
          </mxGeometry>
        </mxCell>
        <mxCell id="RAs5APH7nJDmWUxE77lN-21" value="" style="endArrow=none;html=1;rounded=0;exitX=0.265;exitY=0.882;exitDx=0;exitDy=0;exitPerimeter=0;" edge="1" parent="1" source="RAs5APH7nJDmWUxE77lN-17">
          <mxGeometry width="50" height="50" relative="1" as="geometry">
            <mxPoint x="470" y="79" as="sourcePoint" />
            <mxPoint x="430" y="79" as="targetPoint" />
          </mxGeometry>
        </mxCell>
        <mxCell id="RAs5APH7nJDmWUxE77lN-22" value="" style="endArrow=none;html=1;rounded=0;" edge="1" parent="1">
          <mxGeometry width="50" height="50" relative="1" as="geometry">
            <mxPoint x="570" y="79" as="sourcePoint" />
            <mxPoint x="720" y="199" as="targetPoint" />
            <Array as="points">
              <mxPoint x="720" y="80" />
            </Array>
          </mxGeometry>
        </mxCell>
        <mxCell id="RAs5APH7nJDmWUxE77lN-23" value="observation" style="endArrow=none;html=1;endSize=12;startArrow=none;startSize=14;startFill=0;edgeStyle=orthogonalEdgeStyle;align=center;verticalAlign=bottom;endFill=0;rounded=0;exitX=0;exitY=1;exitDx=0;exitDy=0;exitPerimeter=0;" edge="1" parent="1" source="RAs5APH7nJDmWUxE77lN-1">
          <mxGeometry y="3" relative="1" as="geometry">
            <mxPoint x="334" y="420" as="sourcePoint" />
            <mxPoint x="730" y="270" as="targetPoint" />
            <Array as="points">
              <mxPoint x="50" y="400" />
              <mxPoint x="730" y="400" />
            </Array>
          </mxGeometry>
        </mxCell>
      </root>
    </mxGraphModel>
  </diagram>
</mxfile>
